<?xml version="1.0" encoding="UTF-8"?>
<svg id="_レイヤー_2" data-name="レイヤー 2" xmlns="http://www.w3.org/2000/svg" viewBox="0 0 805.25 423.28">
  <defs>
    <style>
      .cls-1 {
        fill: #fdd1b0;
      }

      .cls-2 {
        fill: #373434;
      }
    </style>
  </defs>
  <g id="_レイヤー_1-2" data-name="レイヤー 1">
    <g>
      <path class="cls-2" d="M175.15,403.69l26.14-.17c16.28-33.64,27.14-70.02,27.32-107.63l.24-51.8c2.42.11,4.45-.33,7.63.45l-.34,69.05c-.18,37.21-11.24,73.19-27.26,106.37l-26.11-.15c-3.94-4.96-4.98-11.04-7.62-16.12Z"/>
      <g>
        <path class="cls-1" d="M179.35,243.93l-.15,44.91c-.08,24.22,3,47.53,8.38,71.29,2.71-3.79,2.28-7.76,2.99-11.45,3.45-18.12,5.74-36.33,5.82-55.3l.26-65.31,32.09-.06.13,16.06-.24,51.8c-.18,37.62-11.04,73.99-27.32,107.63l-26.14.17c-17.13-32.96-27.81-70.12-27.98-107.87l-.31-67.78,32.08.03c.42,5.71.42,10.79.4,15.86Z"/>
        <path class="cls-2" d="M190.56,348.69c-.7,3.69-.28,7.66-2.99,11.45-5.38-23.77-8.46-47.07-8.38-71.29l.15-44.91c2.15.19,4.52-.13,7.22.72l.58,71.07c.09,11.47,1.27,22.43,3.41,32.97Z"/>
      </g>
      <g>
        <rect class="cls-1" x="570.45" y="275.35" width="34.2" height="128.63"/>
        <path class="cls-2" d="M577.78,403.98h26.86v-112.18c2.04.08,4.18-.18,7.34.61l.04,127.42-33.77.12-.47-15.96Z"/>
        <path class="cls-1" d="M604.57,244.05l-.49,20.81-26.28.42c-2.19-.19-4.39.06-7.28-.55v-36.79s33.56.03,33.56.03c.59,5.46.61,10.83.49,16.08Z"/>
        <path class="cls-2" d="M604.65,281.59v-6.24h-26.85c.2-3.28.2-6.68,0-10.07l26.28-.42.49-20.81c1.93.29,6.08-.74,7.31,1.22l.07,35.48c-2.83,1.12-5.12.62-7.3.84Z"/>
      </g>
      <g>
        <rect class="cls-1" x="244.87" y="275.48" width="34.34" height="128.58"/>
        <path class="cls-2" d="M252.7,404.06h26.5v-112.26c1.97.26,5.46-.64,7.31,1.18v126.86s-33.7.08-33.7.08c-.5-6.05-.32-11.04-.11-15.87Z"/>
        <path class="cls-1" d="M279.1,243.98l-.44,20.75-25.99.51c-2.43-.11-4.85.14-7.84-.52l.11-36.71,33.72.02c.2,5.45.55,10.28.43,15.95Z"/>
        <path class="cls-2" d="M279.21,281.71v-6.23h-26.52c-.24-3.41-.25-6.84-.01-10.24l25.99-.51.44-20.75c2.39.18,4.97-.43,7.41,1.1l-.16,35.84c-2.9.74-5.1.56-7.14.79Z"/>
      </g>
      <g>
        <g>
          <path class="cls-1" d="M130.86,257.87l-.1,145.52-24.9.49c-2.29.05-4.7-.27-7.58-.86l-.51-123.98c-.02-4.91,1.46-10.14.34-15.82-5.05-.6-10.4-.31-16.68-.16l-.1,140.12-23.44.7c-2.47-.33-4.6.09-7.92-.7l.55-142.27c.08-20.53,19.41-35.45,37.75-36.31,20.96-.98,37.69,12.68,42.58,33.27Z"/>
          <path class="cls-2" d="M97.78,279.05l-8.78.69-.08,140.23-30.58.03-.43-16.11,23.44-.7.1-140.12c6.28-.15,11.62-.44,16.68.16,1.12,5.68-.36,10.92-.34,15.82Z"/>
          <path class="cls-2" d="M105.86,403.89l24.9-.49.1-145.52c4.21,5.34,7.41,12.31,7.42,20.07l.08,141.95-31.83.06c-1.34-5.62-.37-10.86-.66-16.06Z"/>
        </g>
        <g>
          <rect class="cls-1" x=".03" y="275.48" width="34.34" height="128.58"/>
          <path class="cls-2" d="M7.87,404.06h26.5v-112.26c1.92.28,5.56-.64,7.3,1.17v126.88s-33.7.08-33.7.08c-.5-6.04-.32-11.04-.11-15.87Z"/>
          <path class="cls-1" d="M34.26,243.98l-.44,20.75-25.99.51c-2.43-.11-4.84.12-7.84-.53l.11-36.7,33.72.02c.2,5.45.55,10.28.43,15.95Z"/>
          <path class="cls-2" d="M34.37,281.71v-6.23H7.85c-.25-3.41-.25-6.83-.01-10.24l25.99-.51.44-20.75c2.39.19,4.98-.45,7.41,1.1l-.16,35.84c-2.9.74-5.1.56-7.14.79Z"/>
        </g>
      </g>
      <g>
        <path class="cls-1" d="M371.12,244.02l-.3,17.28-22.01.67-.07,141.4-26.72.49c-2.13.04-4.37-.24-7.1-.65l-.15-125.18c0-5.14.71-10.32-.21-16.04-5.12-.51-9.95-.26-14.64-.07-2.09-.13-4.22.09-7.13-.56l-.11-33.35,78.11-.09.33,16.1Z"/>
        <path class="cls-2" d="M322.02,403.86l26.72-.49.07-141.4,22.01-.67.3-17.28c2.46.25,5.07-.64,7.59.88l-.4,33-21.87.52-.09,141.43-33.73.04-.59-16.03Z"/>
        <path class="cls-2" d="M314.76,278.03c-4.4.14-8.98.42-14.15-.37l-.71-15.75c4.69-.19,9.52-.44,14.64.07.92,5.73.2,10.91.21,16.04Z"/>
      </g>
      <g>
        <path class="cls-1" d="M556.99,244.02l-.3,17.28-22.01.67-.07,141.4-26.72.49c-2.13.04-4.37-.24-7.1-.65l-.15-125.18c0-5.14.71-10.32-.21-16.04-5.12-.51-9.95-.26-14.64-.07-2.09-.13-4.21.09-7.13-.56l-.11-33.35,78.11-.09.33,16.1Z"/>
        <path class="cls-2" d="M507.89,403.86l26.72-.49.07-141.4,22.01-.67.3-17.28c2.44.25,4.9-.54,7.58.79l-.39,33.09-21.87.53-.09,141.43-33.74.04-.59-16.03Z"/>
        <path class="cls-2" d="M500.64,278.03c-4.4.14-8.98.42-14.15-.37l-.71-15.75c4.69-.19,9.52-.44,14.64.07.92,5.73.2,10.91.21,16.04Z"/>
      </g>
      <g>
        <path class="cls-1" d="M464.84,257.92l.12,145.62-25.12.34c-2.23.03-5.19.23-7.13-1.25l-.23-1.04-.25-17.71c-.07-5.08.61-10.18,0-15.92-5.43-.45-10.57-.5-16.1.04l-.28,35.42-23.94.45-7.51-.51.73-143.4c.12-22.78,23.33-37.61,44.52-35.11,18.23,2.15,31.5,15.26,35.2,33.07ZM432.74,332.72v-69.81h-17.07v69.81h17.07Z"/>
        <path class="cls-2" d="M439.84,403.88l25.12-.34-.12-145.62c5.88,6.08,7.93,14.9,7.92,24.04l-.12,138.01-32.43-.02c-.82-5.66-.17-10.86-.38-16.06Z"/>
        <path class="cls-2" d="M432.23,383.87c-2.67.57-5.5-.48-8.48.75l-.22,35.34-31.32-.2-.3-15.9,23.94-.45.28-35.42c5.53-.54,10.68-.49,16.1-.04.6,5.74-.08,10.84,0,15.92Z"/>
        <path class="cls-2" d="M432.7,402.62c-.62-.06-.85-.47-.23-1.04l.23,1.04Z"/>
        <path class="cls-2" d="M432.74,279.63c-3.11-.3-5.8-.79-9.38.16l.23,52.93h-7.92v-69.81h17.07v16.72Z"/>
      </g>
      <g>
        <g>
          <path class="cls-1" d="M797.49,257.76l.27,145.65-25.13.46c-2.32.04-4.81-.04-7.56-.95l-.51-123.86c-.02-4.94,1.53-10.18.31-15.9-5.23-.45-10.67-.36-16.57-.06l-.07,140.26-23.6.52c-2.51-.34-4.69.23-7.85-.91l.61-141.94c.09-20.55,18.41-35.41,38.14-36.45,16.46-.87,41.91,12.36,41.95,33.18Z"/>
          <path class="cls-2" d="M772.63,403.88l25.13-.46-.27-145.65c4.25,5.3,7.69,12.36,7.69,20.14l.07,142.01-32.14-.04c-.98-5.66-.18-10.84-.49-16Z"/>
          <path class="cls-2" d="M764.56,279.07c-2.82.7-5.72-.38-8.79.77l-.03,139.97-31.08.07-.02-15.99,23.6-.52.07-140.26c5.89-.3,11.33-.38,16.57.06,1.22,5.72-.33,10.95-.31,15.9Z"/>
        </g>
        <g>
          <path class="cls-1" d="M700.66,259.89l.1,108.74c.01,16.68-12.38,30.74-26.08,35.75-16.44,6.01-33.41.98-44.93-11.43-3.51-6.06-8.99-12.3-8.97-20.37l.34-110.73c.06-20.21,18.94-34.96,38.33-35.77,17.22-.72,41.2,13.23,41.22,33.81ZM668.68,368.05l.07-103.18h-15.69s-.07,103.17-.07,103.17h15.69Z"/>
          <path class="cls-2" d="M629.75,392.95c11.52,12.41,28.49,17.44,44.93,11.43,13.7-5.01,26.1-19.06,26.08-35.75l-.1-108.74c6.01,5.72,7.91,15.04,7.89,24.01l-.31,101.73c-.06,20.24-17.35,35.75-36.26,37.49-19.46,1.78-38.59-11.14-42.23-30.17Z"/>
          <path class="cls-2" d="M668.73,281.62c-2.63-.08-5.1-.57-8.02.29l-.02,86.13h-7.71s.07-103.18.07-103.18h15.69s-.01,16.76-.01,16.76Z"/>
        </g>
      </g>
    </g>
    <g>
      <path class="cls-2" d="M342.03,179.95l32.73-.68c7.51-.09,14.25-.79,21.18-4.18,9.33-4.57,17.49-13.84,17.51-25.19l.15-109.48c0-3.86,0-7.02-.63-10.18,4.56,5.21,7.89,12.45,7.98,20.01l.33,28.45v86.01c0,13.14-9.07,23.76-20.76,28-6.55,2.38-12.83,3-19.78,2.99l-38.4-.03-.31-15.74Z"/>
      <g>
        <path class="cls-1" d="M560.57,33.32l-.1,145.52-24.9.49c-2.29.05-4.69-.27-7.58-.86l-.51-123.97c-.02-4.91,1.45-10.14.34-15.82-5.06-.6-10.4-.31-16.68-.16l-.1,140.12-23.44.7c-2.47-.33-4.6.09-7.92-.7l.55-142.27c.08-20.53,19.4-35.45,37.75-36.31,20.96-.98,37.69,12.68,42.58,33.27Z"/>
        <path class="cls-2" d="M527.49,54.5l-8.78.69-.08,140.23-30.58.03-.43-16.11,23.44-.7.1-140.12c6.28-.15,11.62-.44,16.68.16,1.12,5.68-.36,10.91-.34,15.82Z"/>
        <path class="cls-2" d="M535.58,179.33l24.9-.49.1-145.52c4.21,5.34,7.41,12.31,7.41,20.07l.08,141.95-31.83.06c-1.33-5.62-.36-10.86-.66-16.06Z"/>
      </g>
      <g>
        <path class="cls-1" d="M31.8,5.38c-1.91,5.19-.35,10.9-.35,17.09l.05,119c2.77,1.38,5.2.57,7.57.49,2.74-.1,5.49.7,8.84-.21l.02-138.33h31.27c.31,5.75.26,10.84.25,15.96l-.2,121.77c2.31,1.95,5.12.91,7.63.81s4.86.78,7.66-.39l.07-138,31.89.04c.21,5.79.37,10.83.34,15.86l-.93,128.32c-.14,19.76-17.66,33.12-35.68,33.08-11.18-.02-19.71-3.86-26.97-12.02-13.44,17.53-41.84,14.29-54.07.4C3.99,163.35.22,154.47.2,146.07L0,3.5l29.06-.18c1.82-.01,2.58.76,2.73,2.05Z"/>
        <path class="cls-2" d="M9.18,169.24c12.24,13.89,40.64,17.13,54.07-.4,7.26,8.16,15.79,12,26.97,12.02,18.02.03,35.54-13.32,35.68-33.08l.93-128.32c2.39.28,4.56-.68,7.54,1.05l-.77,143.2c-.1,18.9-16.26,32.42-33.32,33.37-11.92.66-21.42-2.77-29.37-11.97-6.74,8.55-15.78,11.81-25.95,12.06-17.47.42-32.76-11.2-35.79-27.94Z"/>
        <path class="cls-2" d="M39.07,141.94c-2.37.09-4.8.89-7.57-.49l-.05-119c0-6.19-1.56-11.89.35-17.09.51,4.48.02,8.96.25,14.13,2.39.24,4.31-.4,7.01.42v122.01Z"/>
        <path class="cls-2" d="M86.88,141.94c-2.51.09-5.32,1.13-7.63-.81l.2-121.77c2.4.43,4.91-.53,7.44.84l-.02,121.74Z"/>
      </g>
      <g>
        <rect class="cls-1" x="429.75" y="50.93" width="34.34" height="128.58"/>
        <path class="cls-2" d="M437.58,179.51h26.5v-112.27c1.78.25,5.76-.69,7.29,1.18v126.88s-33.69.07-33.69.07c-.51-6.04-.33-11.04-.11-15.87Z"/>
        <path class="cls-1" d="M463.98,19.43l-.44,20.75-25.99.5c-2.43-.14-4.85.17-7.84-.5l.11-36.71,33.72.02c.19,5.46.55,10.28.43,15.95Z"/>
        <path class="cls-2" d="M464.09,57.16v-6.23h-26.52c-.24-3.41-.27-6.84-.01-10.25l25.99-.5.44-20.75c2.39.16,4.97-.45,7.4,1.11l-.16,35.78c-2.86.91-5.1.67-7.14.85Z"/>
      </g>
      <g>
        <path class="cls-1" d="M317.82,30.24c.6,3.51.57,6.99.57,11.18l-.05,108.16c0,10.83-7.36,19.94-16.12,24.77-7.44,4.11-15.06,4.85-23.37,4.94l-31.83.64-7.71-.74-.06-175.68,48.58-.02c15.52,0,27.4,11.45,29.99,26.75ZM286.31,143.24V39.07h-15.57v104.17h15.57Z"/>
        <path class="cls-2" d="M247.01,179.94l31.83-.64c8.31-.09,15.93-.83,23.37-4.94,8.76-4.83,16.11-13.94,16.12-24.77l.05-108.16c0-4.2.03-7.67-.57-11.18,4.2,5.02,7.76,11.79,7.85,18.99l.4,29.87.06,85.46c0,13.06-8.91,23.74-20.5,28.05-6.51,2.42-12.81,3.11-19.8,3.11l-38.64.03-.17-15.81Z"/>
        <path class="cls-2" d="M286.31,55.28c-2.46.03-4.67-.34-7.75.49l.11,87.47h-7.92V39.07h15.57v16.21Z"/>
      </g>
      <g>
        <path class="cls-1" d="M412.98,30.24c.64,3.16.64,6.32.63,10.18l-.15,109.48c-.02,11.35-8.17,20.63-17.51,25.19-6.93,3.39-13.67,4.09-21.18,4.18l-32.73.68-7.36-.53-.08-176.07,50.09.31c14.9.09,25.83,12.04,28.28,26.58ZM381.34,143.24l.13-104.19-15.47-.02-.13,104.19,15.47.02Z"/>
        <path class="cls-2" d="M381.45,55.34c-2.43,0-4.68-.44-7.76.39l.11,87.5h-7.92s.13-104.2.13-104.2l15.47.02-.02,16.29Z"/>
      </g>
      <g>
        <path class="cls-1" d="M656.53,34.28c1.99,10.8-1.02,22.38.49,34.06l-25.3.44c-2.17.04-4.37.13-7.07-.72-.16-3.92-.65-7.5-.44-10.96.32-5.35.68-10.62.14-16.6-5.53.07-10.65-.49-15.82.3v102.1c3.02,1.13,5.43.32,7.82.27,2.55-.05,4.93.45,8.21-.15l-.09-34.46c-2.97-.64-5.57-.28-7.99-.53l.14-32.56,15.18-.11,24.77.55c.22,3.65.53,6.42.52,9.14v6.98s-.74,55.98-.74,55.98c-.21,15.94-13.99,28.18-27.21,32.36-16.62,5.25-31.76-.26-43.38-11.41-3.55-6.28-9.19-12.61-9.15-20.91l.44-111.75c.08-20.17,20.43-34.5,38.85-34.79,19.66-.3,37.1,13.51,40.64,32.77Z"/>
        <path class="cls-2" d="M585.76,168.96c11.62,11.15,26.76,16.66,43.38,11.41,13.22-4.18,27-16.42,27.21-32.36l.73-55.98c2.38.17,4.41-.18,7.61.46l-.41,69.6c-.12,19.92-17.81,34.78-36.34,36.46-19.39,1.76-38.5-10.75-42.18-29.59Z"/>
        <path class="cls-2" d="M657.09,85.05c0-2.73-.3-5.49-.52-9.14l-24.77-.55c.26-2.19.33-4.41-.07-6.58l25.3-.44c-1.52-11.69,1.49-23.26-.49-34.06,11.94,13.29,7.15,32.88,7.96,50.42l-7.41.35Z"/>
        <path class="cls-2" d="M624.21,57.11c-2.29-.14-4.97-.45-7.69.19-1.29,6.33.11,12.35.09,18.17l-.14,32.56c-.05,11.7-.6,23.43-.13,35.14-2.39.05-4.8.86-7.82-.27V40.81c5.17-.79,10.28-.23,15.81-.3.54,5.98.18,11.25-.14,16.6Z"/>
      </g>
      <g>
        <path class="cls-1" d="M222.97,35.35c1.84,10.21-1.5,21.6-.15,32.36l-24.66.49c-1.75.03-5.92.54-6.85-1.12-.96-3.4-.97-7.01-.81-9.98.29-5.34.73-10.66.14-16.58l-15.42.04-.05,33.29c2.82.89,5.22.2,7.58.23l15.3.2c1.08,3.11.85,6.41.83,9.75,0,2.09.04,4.24,0,6.33l-.38,16.27-23.31.41v35.92c2.8.93,5.24.28,7.63.21s4.9.44,8-.16l-.23-19.86c-.03-2.81.37-5.55.68-9.11l15.46-.39c5.15-.13,10.25.15,16.05.36.3,5.91.47,10.97.37,16.1l-.27,13.96c-.33,16.77-11.6,30.58-25.96,35.78-16.66,6.03-32.83.77-44.84-10.89-3.54-6.27-9.15-12.66-9.13-20.9l.25-110.83c.05-20.44,20.03-35.47,39.03-35.74,20.03-.28,37.2,14.09,40.76,33.85Z"/>
        <path class="cls-2" d="M152.05,168.96c12.01,11.66,28.18,16.92,44.84,10.89,14.36-5.2,25.64-19,25.96-35.78l.27-13.96c2.31.14,4.49-.28,7.42.65l-.04,30.3c-.03,20.29-17.02,35.72-36.34,37.49-19.26,1.77-38.37-10.76-42.11-29.6Z"/>
        <path class="cls-2" d="M198.87,84.05c.01-3.34.25-6.65-.83-9.75-.6-1.72,1.02-4.28.11-6.09l24.66-.49c-1.35-10.76,1.99-22.15.15-32.36,10.61,9.93,7.57,34.47,7.22,48.83-11.1.26-21.25.48-31.32-.14Z"/>
        <path class="cls-2" d="M206.7,113.67l-15.46.39c-.31,3.56-.71,6.3-.68,9.11-2.38.09-4.73-.32-7.75.15l-.02,19.87c-2.39.07-4.83.72-7.63-.21v-35.92s23.32-.41,23.32-.41l.38-16.27c2.33.08,4.81-.39,7.48.47l.36,22.82Z"/>
        <path class="cls-2" d="M190.49,57.11c-2.33.05-4.71-.52-7.62.26l-.12,16.72c-2.36-.03-4.76.66-7.58-.23l.05-33.29,15.42-.04c.59,5.93.14,11.25-.14,16.58Z"/>
      </g>
    </g>
  </g>
</svg>